<svg width="224" height="56" viewBox="0 0 224 56" fill="none" xmlns="http://www.w3.org/2000/svg">
<path d="M110.363 30.7361C108.828 30.4236 107.633 30.1662 107.633 29.2011C107.633 28.3187 108.571 27.8653 110.449 27.8653C111.671 27.8653 112.753 28.0644 113.807 28.4045L114.576 25.4448C113.638 25.1047 112.299 24.7616 110.452 24.7616C106.696 24.7616 104.193 26.6397 104.193 29.4278C104.193 32.5284 106.895 33.1534 109.058 33.6375C110.593 33.9776 111.904 34.2625 111.904 35.2889C111.904 36.4256 110.651 36.7963 109.174 36.7963C107.753 36.7963 106.613 36.3398 105.617 35.2614L103.54 37.8227C104.934 39.1892 106.867 39.8724 109.058 39.8724C112.784 39.8724 115.372 37.9085 115.372 35.1204C115.372 31.8176 112.584 31.2202 110.363 30.7361Z" fill="#0058CB"/>
<path d="M125.443 24.7616C120.379 24.7616 117.107 27.8898 117.107 32.7276C117.107 36.8821 120.008 39.8694 124.019 39.8694C125.897 39.8694 127.377 39.1861 128.427 38.218V39.4404H131.5V26.2108C129.708 25.2457 127.689 24.7616 125.443 24.7616ZM128.146 36.0549C127.349 36.5941 126.267 36.9097 125.045 36.9097C122.284 36.9097 120.605 35.2031 120.605 32.4702C120.605 29.5687 122.34 27.8622 125.272 27.8622C126.353 27.8622 127.349 28.0338 128.146 28.3463V36.0549Z" fill="#0058CB"/>
<path d="M27.7773 12.4999C14.0084 13.7805 8.51804 18.3886 10.338 22.7423L12.0445 26.6977C12.7002 23.9954 15.6292 19.9848 27.0359 18.4468L28.9416 18.1894C29.824 18.0761 30.1641 17.3346 29.7658 16.5104L27.7773 12.4999Z" fill="#0058CB"/>
<path d="M27.5231 20.2665C14.9767 21.973 12.2468 27.1785 13.4693 29.9972L15.3199 34.2927C15.3199 30.5365 20.3568 27.7484 28.2064 26.2716C29.2297 26.0724 29.772 25.3616 29.3737 24.4517L27.5231 20.2665Z" fill="#0058CB"/>
<path d="M17.8475 32.8407C17.1919 33.4963 16.7384 34.4063 16.7384 35.2029C16.7384 37.5651 19.1558 39.1277 25.0445 39.2441L22.8814 34.9762C19.358 35.2029 18.304 34.0632 17.8475 32.8407Z" fill="#0058CB"/>
<path d="M95.8284 24.7615C94.1494 24.7615 92.6696 25.2456 91.6187 26.1831V19.6112H88.2607V39.4404H91.6187V28.6587C92.7278 28.0888 93.7511 27.8345 94.8633 27.8345C96.769 27.8345 97.9088 28.7445 97.9088 30.2519V39.4404H101.267V30.1661C101.261 26.7806 99.2415 24.7615 95.8284 24.7615Z" fill="#0058CB"/>
<path d="M77.6198 24.7616C73.1803 24.7616 69.7979 28.0062 69.7979 32.3293C69.7979 36.6523 73.1834 39.8969 77.6198 39.8969C82.0869 39.8969 85.4418 36.6523 85.4418 32.3293C85.4418 28.0031 82.0869 24.7616 77.6198 24.7616ZM77.6198 36.7963C75.4874 36.7963 73.3243 35.2614 73.3243 32.3293C73.3243 29.3696 75.4874 27.8346 77.6198 27.8346C79.7829 27.8346 81.9429 29.3696 81.9429 32.3293C81.9429 35.2583 79.7829 36.7963 77.6198 36.7963Z" fill="#0058CB"/>
<path d="M63.8235 36.7657C61.6604 36.7657 59.3564 35.3717 59.3564 32.2986C59.3564 29.7097 61.207 27.8898 63.8511 27.8898C65.3585 27.8898 66.2685 28.4872 66.9241 29.0571L68.888 26.6673C68.0332 25.6715 66.0724 24.7616 63.7959 24.7616C59.1879 24.7616 55.83 27.9755 55.83 32.4151C55.83 36.8239 58.9888 39.8969 63.4834 39.8969C65.8732 39.8969 68.0057 39.0146 69.1454 37.6481L67.1539 35.4299C66.2133 36.3674 65.1318 36.7657 63.8235 36.7657Z" fill="#0058CB"/>
<path d="M53.1276 25.2147H49.7697V39.4401H53.1276V25.2147Z" fill="#0058CB"/>
<path d="M51.4453 23.7106C52.5774 23.7106 53.495 22.7929 53.495 21.6609C53.495 20.5289 52.5774 19.6112 51.4453 19.6112C50.3133 19.6112 49.3956 20.5289 49.3956 21.6609C49.3956 22.7929 50.3133 23.7106 51.4453 23.7106Z" fill="#0058CB"/>
<path d="M34.3767 39.4397H38.0472V31.8168H46.7822V28.6304H38.0472V23.2534H47.3214V20.0946H34.3767V39.4397Z" fill="#0058CB"/>
<path d="M141.697 34.9724H143.514C143.719 37.3071 145.269 37.8432 146.777 37.8432C148.511 37.8432 149.73 36.9976 149.73 35.6556C149.73 32.7848 142.132 33.1157 142.132 28.6149C142.132 26.219 144.341 24.9383 146.654 24.9383C148.989 24.9383 151.115 26.0536 151.425 29.2737H149.608C149.442 27.1259 147.996 26.6112 146.614 26.6112C145.312 26.6112 144.035 27.2914 144.035 28.5108C144.035 31.4858 151.633 31.4429 151.633 35.5729C151.633 38.1741 149.259 39.5375 146.78 39.5375C144.237 39.5375 142.049 38.361 141.697 34.9724Z" fill="#0058CB"/>
<path d="M153.26 34.1276C153.26 31.2354 155.16 28.7782 158.279 28.7782C160.797 28.7782 163.276 30.451 163.049 34.3758H155.058C155.224 36.689 156.753 37.7828 158.321 37.7828C159.706 37.7828 160.883 36.977 161.254 35.6963H162.905C162.39 38.0494 160.613 39.4342 158.239 39.4342C154.976 39.4342 153.26 36.8116 153.26 34.1276ZM161.315 32.8684C161.045 31.217 159.746 30.4327 158.3 30.4327C156.937 30.4327 155.555 31.1128 155.141 32.8684H161.315Z" fill="#0058CB"/>
<path d="M166.891 41.8702H171.309C172.219 41.8702 172.363 41.6649 172.363 40.9418V37.5961C171.762 38.7941 170.38 39.4743 168.913 39.4743C166.621 39.4743 164.329 37.7187 164.329 34.1677C164.329 30.966 166.394 28.8182 169.305 28.8182C170.607 28.8182 171.64 29.2318 172.403 29.8722L172.464 28.9837H174.115V40.424C174.115 43.3163 172.669 43.5001 171.183 43.5001H166.888V41.8702H166.891ZM169.348 37.8657C170.855 37.8657 172.301 36.7934 172.301 34.7896V33.2608C172.301 31.3612 170.855 30.39 169.409 30.39C167.798 30.39 166.146 31.6278 166.146 34.1493C166.146 36.6708 167.776 37.8657 169.348 37.8657Z" fill="#0058CB"/>
<path d="M176.159 35.5734V28.9862H177.976V35.2027C177.976 36.9798 179.07 37.8468 180.39 37.8468C181.754 37.8468 182.93 36.9798 182.93 35.2027V28.9862H184.747V39.3113H183.053L182.909 37.5558C182.351 38.7537 181.153 39.4553 179.811 39.4553C178.08 39.4553 176.159 38.2972 176.159 35.5734Z" fill="#0058CB"/>
<path d="M187.186 28.9856H188.837L189.003 30.8852C189.456 29.6259 190.841 28.7987 192.244 28.7987H192.348V30.6983C190.78 30.5328 189.003 31.2344 189.003 33.8785V39.3107H187.186V28.9856Z" fill="#0058CB"/>
<path d="M193.05 34.1479C193.05 30.8635 195.302 28.7587 198.295 28.7587C201.227 28.7587 203.479 30.8635 203.479 34.1479C203.479 37.4324 201.227 39.5372 198.295 39.5372C195.302 39.5372 193.05 37.4293 193.05 34.1479ZM201.663 34.1479C201.663 31.8347 200.195 30.453 198.295 30.453C196.353 30.453 194.867 31.8378 194.867 34.1479C194.867 36.4611 196.353 37.8429 198.295 37.8429C200.195 37.8429 201.663 36.4611 201.663 34.1479Z" fill="#0058CB"/>
<path d="M205.214 35.8394H206.865C206.865 37.5337 208.02 37.9044 209.261 37.9044C210.563 37.9044 211.574 37.451 211.574 36.541C211.574 34.332 205.462 35.1991 205.462 31.5439C205.462 29.292 207.775 28.7987 209.304 28.7987C211.491 28.7987 213.146 29.7914 213.146 32.2486H211.494C211.494 30.7626 210.44 30.4103 209.307 30.4103C208.087 30.4103 207.22 30.8637 207.22 31.5868C207.22 33.5078 213.354 32.7633 213.354 36.5226C213.354 39.1238 210.649 39.516 209.224 39.516C206.926 39.516 205.214 38.4835 205.214 35.8394Z" fill="#0058CB"/>
</svg>
